<svg xmlns="http://www.w3.org/2000/svg" version="1.1" xmlns:xlink="http://www.w3.org/1999/xlink" xmlns:svgjs="http://svgjs.dev/svgjs" viewBox="0 0 13.457756107608796 9.403530263435567"><g transform="matrix(1,0,0,1,0.9344414082965864,7.36658885513898)"><rect width="13.457756107608796" height="13.457756107608796" x="-0.9344414082965864" y="-9.393701777225594" fill="#ffffff"></rect><g><path d=" M 0.426 -2.220446049250313e-16 Q 0.5145 -2.220446049250313e-16 0.5625 0.018749999999999822 Q 0.6105 0.03749999999999987 0.645 0.058499999999999774 Q 0.663 0.06899999999999995 0.67425 0.07424999999999993 Q 0.6855 0.0794999999999999 0.6960000000000001 0.0794999999999999 Q 0.72 0.0794999999999999 0.729 0.013499999999999845 L 0.7635000000000001 0.013499999999999845 Q 0.762 0.041999999999999815 0.75975 0.08174999999999988 Q 0.7575000000000001 0.12149999999999994 0.75675 0.18599999999999983 Q 0.756 0.25049999999999983 0.756 0.3554999999999999 L 0.7215 0.3554999999999999 Q 0.7155 0.27749999999999986 0.6855 0.20399999999999985 Q 0.6555 0.13049999999999984 0.60075 0.08324999999999994 Q 0.546 0.03599999999999981 0.4665 0.03599999999999981 Q 0.3945 0.03599999999999981 0.34800000000000003 0.07649999999999979 Q 0.3015 0.11699999999999988 0.3015 0.18899999999999983 Q 0.3015 0.2489999999999999 0.3315 0.29174999999999984 Q 0.3615 0.3344999999999999 0.41925 0.3749999999999999 Q 0.47700000000000004 0.41549999999999987 0.5595 0.4724999999999999 Q 0.6315000000000001 0.5189999999999999 0.6885 0.5654999999999999 Q 0.7455 0.6119999999999999 0.78 0.6704999999999999 Q 0.8145 0.7289999999999999 0.8145 0.8099999999999998 Q 0.8145 0.9089999999999999 0.76275 0.9734999999999999 Q 0.711 1.0379999999999998 0.627 1.07025 Q 0.543 1.1024999999999998 0.4425 1.1024999999999998 Q 0.34950000000000003 1.1024999999999998 0.294 1.0844999999999998 Q 0.23850000000000002 1.0665 0.201 1.047 Q 0.168 1.0259999999999998 0.15 1.0259999999999998 Q 0.126 1.0259999999999998 0.117 1.0919999999999999 L 0.0825 1.0919999999999999 Q 0.0855 1.0559999999999998 0.08625000000000001 1.008 Q 0.08700000000000001 0.96 0.08775000000000001 0.8827499999999999 Q 0.0885 0.8054999999999999 0.0885 0.6869999999999998 L 0.123 0.6869999999999998 Q 0.129 0.7859999999999999 0.15675 0.87225 Q 0.1845 0.9584999999999999 0.24225 1.011 Q 0.3 1.0635 0.396 1.0635 Q 0.47400000000000003 1.0635 0.528 1.0214999999999999 Q 0.582 0.9794999999999999 0.582 0.8955 Q 0.582 0.8024999999999999 0.519 0.7417499999999999 Q 0.456 0.6809999999999998 0.357 0.6164999999999998 Q 0.28650000000000003 0.5699999999999998 0.225 0.5234999999999999 Q 0.1635 0.47699999999999987 0.12675 0.4169999999999999 Q 0.09 0.3569999999999999 0.09 0.27449999999999986 Q 0.09 0.17999999999999994 0.13725 0.11924999999999986 Q 0.1845 0.058499999999999774 0.26175 0.029249999999999776 Q 0.339 -2.220446049250313e-16 0.426 -2.220446049250313e-16 M 1.8974765625 0.01949999999999985 L 1.8974765625 0.04949999999999988 Q 1.8494765625 0.05549999999999988 1.8247265625 0.07424999999999993 Q 1.7999765625 0.09299999999999986 1.7924765625 0.13349999999999984 Q 1.7849765625 0.17399999999999993 1.7849765625 0.24749999999999994 L 1.7849765625 0.6449999999999999 Q 1.7849765625 0.7424999999999999 1.7714765625000002 0.8234999999999999 Q 1.7579765625000001 0.9044999999999999 1.7234765625000001 0.9629999999999999 Q 1.6844765625 1.0274999999999999 1.6094765625 1.065 Q 1.5344765625 1.1024999999999998 1.4189765625000001 1.1024999999999998 Q 1.3499765625 1.1024999999999998 1.2779765625000001 1.0867499999999999 Q 1.2059765625 1.071 1.1489765625000001 1.0274999999999999 Q 1.1009765625 0.9869999999999999 1.0754765625 0.9359999999999999 Q 1.0499765625 0.8849999999999999 1.0409765625 0.8152499999999999 Q 1.0319765625000001 0.7454999999999998 1.0319765625000001 0.6495 L 1.0319765625000001 0.17849999999999988 Q 1.0319765625000001 0.12299999999999989 1.0237265625 0.09674999999999989 Q 1.0154765625 0.07049999999999979 0.9914765625 0.06074999999999986 Q 0.9674765625 0.050999999999999934 0.9194765625 0.04949999999999988 L 0.9194765625 0.01949999999999985 Q 0.9569765625 0.020999999999999908 1.0207265625 0.022499999999999964 Q 1.0844765625 0.0239999999999998 1.1534765625 0.0239999999999998 Q 1.2224765625 0.0239999999999998 1.2862265625 0.022499999999999964 Q 1.3499765625 0.020999999999999908 1.3919765625 0.01949999999999985 L 1.3919765625 0.04949999999999988 Q 1.3409765625 0.050999999999999934 1.3147265625 0.06074999999999986 Q 1.2884765625 0.07049999999999979 1.2794765625 0.09674999999999989 Q 1.2704765625 0.12299999999999989 1.2704765625 0.17849999999999988 L 1.2704765625 0.7439999999999999 Q 1.2704765625 0.8444999999999999 1.2884765625 0.91275 Q 1.3064765625 0.9809999999999999 1.3522265625 1.0154999999999998 Q 1.3979765625 1.0499999999999998 1.4774765625000001 1.0499999999999998 Q 1.5824765625000001 1.0499999999999998 1.6417265625000002 1.0005 Q 1.7009765625000002 0.9509999999999998 1.7257265625 0.8632499999999999 Q 1.7504765625 0.7754999999999999 1.7504765625 0.6615 L 1.7504765625 0.26549999999999985 Q 1.7504765625 0.18299999999999994 1.7399765624999999 0.13874999999999993 Q 1.7294765625 0.09449999999999992 1.6987265625 0.07499999999999996 Q 1.6679765625 0.05549999999999988 1.6049765625 0.04949999999999988 L 1.6049765625 0.01949999999999985 Q 1.6334765625 0.020999999999999908 1.6799765625 0.022499999999999964 Q 1.7264765625 0.0239999999999998 1.7669765625 0.0239999999999998 Q 1.8029765625 0.0239999999999998 1.8382265625 0.022499999999999964 Q 1.8734765625 0.020999999999999908 1.8974765625 0.01949999999999985 M 3.2805153808593754 0.01949999999999985 L 3.2805153808593754 0.04949999999999988 Q 3.2325153808593754 0.050999999999999934 3.2085153808593754 0.06074999999999986 Q 3.1845153808593754 0.07049999999999979 3.176265380859375 0.09674999999999989 Q 3.168015380859375 0.12299999999999989 3.168015380859375 0.17849999999999988 L 3.168015380859375 0.9224999999999999 Q 3.168015380859375 0.9764999999999999 3.176265380859375 1.0034999999999998 Q 3.1845153808593754 1.0305 3.2085153808593754 1.0394999999999999 Q 3.2325153808593754 1.0485 3.2805153808593754 1.0514999999999999 L 3.2805153808593754 1.0815 Q 3.238515380859375 1.0785 3.174765380859375 1.07775 Q 3.1110153808593752 1.077 3.0450153808593754 1.077 Q 2.9730153808593753 1.077 2.910015380859375 1.07775 Q 2.847015380859375 1.0785 2.8080153808593753 1.0815 L 2.8080153808593753 1.0514999999999999 Q 2.8590153808593755 1.0485 2.885265380859375 1.0394999999999999 Q 2.9115153808593752 1.0305 2.920515380859375 1.0034999999999998 Q 2.9295153808593755 0.9764999999999999 2.9295153808593755 0.9224999999999999 L 2.9295153808593755 0.11099999999999988 L 2.940015380859375 0.11099999999999988 L 2.568015380859375 1.083 L 2.544015380859375 1.083 L 2.1390153808593753 0.11699999999999988 L 2.1390153808593753 0.8354999999999999 Q 2.1390153808593753 0.9179999999999999 2.148015380859375 0.9622499999999999 Q 2.157015380859375 1.0065 2.1877653808593753 1.02525 Q 2.218515380859375 1.0439999999999998 2.2845153808593754 1.0514999999999999 L 2.2845153808593754 1.0815 Q 2.2560153808593753 1.0785 2.2095153808593753 1.07775 Q 2.1630153808593753 1.077 2.122515380859375 1.077 Q 2.088015380859375 1.077 2.052015380859375 1.07775 Q 2.016015380859375 1.0785 1.9920153808593752 1.0815 L 1.9920153808593752 1.0514999999999999 Q 2.040015380859375 1.0439999999999998 2.064015380859375 1.0259999999999998 Q 2.088015380859375 1.008 2.0962653808593754 0.9667499999999999 Q 2.1045153808593753 0.9254999999999999 2.1045153808593753 0.8534999999999999 L 2.1045153808593753 0.17849999999999988 Q 2.1045153808593753 0.12299999999999989 2.0962653808593754 0.09674999999999989 Q 2.088015380859375 0.07049999999999979 2.063265380859375 0.06074999999999986 Q 2.0385153808593754 0.050999999999999934 1.9920153808593752 0.04949999999999988 L 1.9920153808593752 0.01949999999999985 Q 2.016015380859375 0.020999999999999908 2.052015380859375 0.022499999999999964 Q 2.088015380859375 0.0239999999999998 2.122515380859375 0.0239999999999998 Q 2.1870153808593753 0.0239999999999998 2.2492653808593754 0.022499999999999964 Q 2.311515380859375 0.020999999999999908 2.359515380859375 0.01949999999999985 L 2.674515380859375 0.7799999999999999 L 2.637015380859375 0.8144999999999999 L 2.9385153808593754 0.0239999999999998 Q 2.964015380859375 0.0239999999999998 2.991015380859375 0.0239999999999998 Q 3.0180153808593753 0.0239999999999998 3.0450153808593754 0.0239999999999998 Q 3.1110153808593752 0.0239999999999998 3.174765380859375 0.022499999999999964 Q 3.238515380859375 0.020999999999999908 3.2805153808593754 0.01949999999999985 M 4.686018310546875 0.01949999999999985 L 4.686018310546875 0.04949999999999988 Q 4.638018310546875 0.050999999999999934 4.614018310546875 0.06074999999999986 Q 4.590018310546876 0.07049999999999979 4.581768310546876 0.09674999999999989 Q 4.573518310546875 0.12299999999999989 4.573518310546875 0.17849999999999988 L 4.573518310546875 0.9224999999999999 Q 4.573518310546875 0.9764999999999999 4.581768310546876 1.0034999999999998 Q 4.590018310546876 1.0305 4.614018310546875 1.0394999999999999 Q 4.638018310546875 1.0485 4.686018310546875 1.0514999999999999 L 4.686018310546875 1.0815 Q 4.644018310546875 1.0785 4.5802683105468756 1.07775 Q 4.516518310546875 1.077 4.450518310546875 1.077 Q 4.378518310546875 1.077 4.315518310546875 1.07775 Q 4.252518310546876 1.0785 4.213518310546876 1.0815 L 4.213518310546876 1.0514999999999999 Q 4.264518310546875 1.0485 4.290768310546875 1.0394999999999999 Q 4.317018310546875 1.0305 4.326018310546876 1.0034999999999998 Q 4.335018310546875 0.9764999999999999 4.335018310546875 0.9224999999999999 L 4.335018310546875 0.11099999999999988 L 4.3455183105468755 0.11099999999999988 L 3.9735183105468757 1.083 L 3.9495183105468756 1.083 L 3.5445183105468754 0.11699999999999988 L 3.5445183105468754 0.8354999999999999 Q 3.5445183105468754 0.9179999999999999 3.5535183105468753 0.9622499999999999 Q 3.562518310546875 1.0065 3.5932683105468755 1.02525 Q 3.6240183105468753 1.0439999999999998 3.6900183105468756 1.0514999999999999 L 3.6900183105468756 1.0815 Q 3.6615183105468754 1.0785 3.6150183105468754 1.07775 Q 3.5685183105468754 1.077 3.528018310546875 1.077 Q 3.4935183105468752 1.077 3.457518310546875 1.07775 Q 3.421518310546875 1.0785 3.3975183105468756 1.0815 L 3.3975183105468756 1.0514999999999999 Q 3.445518310546875 1.0439999999999998 3.469518310546875 1.0259999999999998 Q 3.4935183105468752 1.008 3.5017683105468755 0.9667499999999999 Q 3.5100183105468754 0.9254999999999999 3.5100183105468754 0.8534999999999999 L 3.5100183105468754 0.17849999999999988 Q 3.5100183105468754 0.12299999999999989 3.5017683105468755 0.09674999999999989 Q 3.4935183105468752 0.07049999999999979 3.468768310546875 0.06074999999999986 Q 3.4440183105468756 0.050999999999999934 3.3975183105468756 0.04949999999999988 L 3.3975183105468756 0.01949999999999985 Q 3.421518310546875 0.020999999999999908 3.457518310546875 0.022499999999999964 Q 3.4935183105468752 0.0239999999999998 3.528018310546875 0.0239999999999998 Q 3.5925183105468754 0.0239999999999998 3.6547683105468756 0.022499999999999964 Q 3.7170183105468753 0.020999999999999908 3.7650183105468753 0.01949999999999985 L 4.080018310546875 0.7799999999999999 L 4.042518310546876 0.8144999999999999 L 4.3440183105468755 0.0239999999999998 Q 4.369518310546876 0.0239999999999998 4.396518310546876 0.0239999999999998 Q 4.423518310546875 0.0239999999999998 4.450518310546875 0.0239999999999998 Q 4.516518310546875 0.0239999999999998 4.5802683105468756 0.022499999999999964 Q 4.644018310546875 0.020999999999999908 4.686018310546875 0.01949999999999985 M 5.604021240234376 0.01949999999999985 Q 5.598021240234376 0.08549999999999991 5.5957712402343756 0.1469999999999999 Q 5.5935212402343755 0.2084999999999999 5.5935212402343755 0.24149999999999994 Q 5.5935212402343755 0.27149999999999985 5.5950212402343755 0.2984999999999999 Q 5.596521240234376 0.3254999999999999 5.598021240234376 0.3434999999999999 L 5.563521240234375 0.3434999999999999 Q 5.5485212402343755 0.23399999999999987 5.517021240234375 0.1702499999999999 Q 5.485521240234376 0.10649999999999993 5.435271240234376 0.08024999999999993 Q 5.385021240234376 0.053999999999999826 5.317521240234376 0.053999999999999826 L 5.256021240234375 0.053999999999999826 Q 5.211021240234375 0.053999999999999826 5.189271240234375 0.06149999999999989 Q 5.167521240234375 0.06899999999999995 5.160021240234376 0.09074999999999989 Q 5.152521240234376 0.11249999999999993 5.152521240234376 0.16049999999999986 L 5.152521240234376 0.9404999999999999 Q 5.152521240234376 0.9869999999999999 5.160021240234376 1.0094999999999998 Q 5.167521240234375 1.0319999999999998 5.189271240234375 1.0394999999999999 Q 5.211021240234375 1.047 5.256021240234375 1.047 L 5.329521240234375 1.047 Q 5.397021240234375 1.047 5.448771240234375 1.01775 Q 5.5005212402343755 0.9884999999999999 5.537271240234375 0.9179999999999999 Q 5.574021240234376 0.8474999999999999 5.5935212402343755 0.7274999999999999 L 5.628021240234376 0.7274999999999999 Q 5.623521240234376 0.7754999999999999 5.623521240234376 0.8534999999999999 Q 5.623521240234376 0.8879999999999999 5.625021240234376 0.9509999999999998 Q 5.626521240234376 1.0139999999999998 5.634021240234375 1.0815 Q 5.557521240234376 1.0785 5.461521240234376 1.07775 Q 5.365521240234376 1.077 5.2905212402343755 1.077 Q 5.239521240234375 1.077 5.155521240234376 1.077 Q 5.071521240234375 1.077 4.977021240234375 1.07775 Q 4.882521240234375 1.0785 4.801521240234376 1.0815 L 4.801521240234376 1.0514999999999999 Q 4.849521240234376 1.0485 4.873521240234376 1.0394999999999999 Q 4.897521240234376 1.0305 4.905771240234375 1.0034999999999998 Q 4.9140212402343755 0.9764999999999999 4.9140212402343755 0.9224999999999999 L 4.9140212402343755 0.17849999999999988 Q 4.9140212402343755 0.12299999999999989 4.905771240234375 0.09674999999999989 Q 4.897521240234376 0.07049999999999979 4.872771240234376 0.06074999999999986 Q 4.848021240234376 0.050999999999999934 4.801521240234376 0.04949999999999988 L 4.801521240234376 0.01949999999999985 Q 4.882521240234375 0.020999999999999908 4.977021240234375 0.022499999999999964 Q 5.071521240234375 0.0239999999999998 5.155521240234376 0.0239999999999998 Q 5.239521240234375 0.0239999999999998 5.2905212402343755 0.0239999999999998 Q 5.3595212402343755 0.0239999999999998 5.447271240234375 0.023249999999999993 Q 5.535021240234375 0.022499999999999964 5.604021240234376 0.01949999999999985 M 5.370021240234376 0.5324999999999999 Q 5.370021240234376 0.5324999999999999 5.370021240234376 0.5474999999999999 Q 5.370021240234376 0.5624999999999999 5.370021240234376 0.5624999999999999 L 5.107521240234376 0.5624999999999999 Q 5.107521240234376 0.5624999999999999 5.107521240234376 0.5474999999999999 Q 5.107521240234376 0.5324999999999999 5.107521240234376 0.5324999999999999 L 5.370021240234376 0.5324999999999999 M 5.413521240234376 0.3344999999999999 Q 5.4075212402343755 0.41999999999999993 5.4082712402343756 0.46499999999999986 Q 5.409021240234376 0.5099999999999999 5.409021240234376 0.5474999999999999 Q 5.409021240234376 0.585 5.410521240234376 0.6299999999999999 Q 5.412021240234376 0.6749999999999998 5.418021240234376 0.7605 L 5.3835212402343755 0.7605 Q 5.376021240234375 0.708 5.355771240234375 0.6629999999999999 Q 5.3355212402343755 0.6179999999999999 5.298021240234376 0.5902499999999999 Q 5.260521240234375 0.5624999999999999 5.200521240234376 0.5624999999999999 L 5.200521240234376 0.5324999999999999 Q 5.260521240234375 0.5324999999999999 5.296521240234376 0.49949999999999994 Q 5.332521240234375 0.4664999999999999 5.352021240234375 0.42074999999999985 Q 5.371521240234376 0.3749999999999999 5.379021240234375 0.3344999999999999 L 5.413521240234376 0.3344999999999999 M 5.7674794921875 0.01949999999999985 Q 5.8049794921875 0.020999999999999908 5.8687294921875 0.022499999999999964 Q 5.9324794921875 0.0239999999999998 5.9954794921875 0.0239999999999998 Q 6.0674794921875 0.0239999999999998 6.1349794921875 0.022499999999999964 Q 6.2024794921875 0.020999999999999908 6.2309794921875 0.020999999999999908 Q 6.4394794921875 0.020999999999999908 6.5429794921875 0.08924999999999994 Q 6.6464794921875 0.15749999999999986 6.6464794921875 0.2819999999999999 Q 6.6464794921875 0.33299999999999985 6.6254794921875 0.3847499999999999 Q 6.6044794921875 0.4364999999999999 6.5542294921875 0.4807499999999999 Q 6.5039794921875 0.5249999999999999 6.4169794921875 0.5512499999999999 Q 6.3299794921875 0.5774999999999999 6.1979794921875 0.5774999999999999 L 6.0539794921875005 0.5774999999999999 L 6.0539794921875005 0.5474999999999999 L 6.1829794921875 0.5474999999999999 Q 6.2714794921875 0.5474999999999999 6.3172294921875 0.5137499999999999 Q 6.3629794921875 0.47999999999999987 6.3802294921875005 0.42374999999999985 Q 6.3974794921875 0.36749999999999994 6.3974794921875 0.2984999999999999 Q 6.3974794921875 0.17999999999999994 6.3554794921875 0.11474999999999991 Q 6.313479492187501 0.04949999999999988 6.2114794921875 0.04949999999999988 Q 6.1529794921875 0.04949999999999988 6.1357294921875 0.07499999999999996 Q 6.1184794921875 0.10049999999999992 6.1184794921875 0.17849999999999988 L 6.1184794921875 0.9224999999999999 Q 6.1184794921875 0.9764999999999999 6.126729492187501 1.0034999999999998 Q 6.1349794921875 1.0305 6.1589794921875 1.0394999999999999 Q 6.1829794921875 1.0485 6.2309794921875 1.0514999999999999 L 6.2309794921875 1.0815 Q 6.1904794921875 1.0785 6.1289794921875 1.07775 Q 6.0674794921875 1.077 6.0044794921875 1.077 Q 5.9324794921875 1.077 5.8687294921875 1.07775 Q 5.8049794921875 1.0785 5.7674794921875 1.0815 L 5.7674794921875 1.0514999999999999 Q 5.8154794921875 1.0485 5.8394794921875 1.0394999999999999 Q 5.8634794921875 1.0305 5.8717294921875 1.0034999999999998 Q 5.8799794921875 0.9764999999999999 5.8799794921875 0.9224999999999999 L 5.8799794921875 0.17849999999999988 Q 5.8799794921875 0.12299999999999989 5.8717294921875 0.09674999999999989 Q 5.8634794921875 0.07049999999999979 5.8387294921875 0.06074999999999986 Q 5.8139794921875 0.050999999999999934 5.7674794921875 0.04949999999999988 L 5.7674794921875 0.01949999999999985 M 6.0509794921875 0.5519999999999999 Q 6.1154794921875 0.5534999999999999 6.1627294921875 0.5579999999999999 Q 6.2099794921875 0.5624999999999999 6.2459794921875 0.5662499999999999 Q 6.2819794921875 0.5699999999999998 6.3104794921875005 0.5714999999999999 Q 6.4469794921875 0.5834999999999999 6.5122294921875 0.6299999999999999 Q 6.5774794921875 0.6764999999999999 6.596979492187501 0.7694999999999999 L 6.6314794921875 0.9239999999999999 Q 6.6449794921875 0.9839999999999999 6.6599794921875 1.008 Q 6.6749794921875 1.0319999999999998 6.7034794921875 1.0319999999999998 Q 6.7229794921875 1.0305 6.735729492187501 1.0222499999999999 Q 6.7484794921875 1.0139999999999998 6.7634794921875 0.9974999999999999 L 6.784479492187501 1.0154999999999998 Q 6.7439794921875 1.0619999999999998 6.6974794921875 1.08225 Q 6.6509794921875 1.1024999999999998 6.5849794921875 1.1024999999999998 Q 6.5039794921875 1.1024999999999998 6.4514794921875005 1.0679999999999998 Q 6.3989794921875 1.0334999999999999 6.3824794921875005 0.9404999999999999 L 6.3554794921875 0.7905 Q 6.3449794921875 0.7274999999999999 6.3299794921875 0.6802499999999999 Q 6.314979492187501 0.6329999999999999 6.2887294921875005 0.6052499999999998 Q 6.2624794921875 0.5774999999999999 6.2159794921875005 0.5774999999999999 L 6.0539794921875005 0.5774999999999999 L 6.0509794921875 0.5519999999999999 M 7.28400439453125 0.01949999999999985 L 7.28400439453125 0.04949999999999988 Q 7.23600439453125 0.050999999999999934 7.21125439453125 0.06074999999999986 Q 7.18650439453125 0.07049999999999979 7.17900439453125 0.09674999999999989 Q 7.17150439453125 0.12299999999999989 7.17150439453125 0.17849999999999988 L 7.17150439453125 0.9224999999999999 Q 7.17150439453125 0.9764999999999999 7.179754394531249 1.0034999999999998 Q 7.18800439453125 1.0305 7.21200439453125 1.0394999999999999 Q 7.23600439453125 1.0485 7.28400439453125 1.0514999999999999 L 7.28400439453125 1.0815 Q 7.24350439453125 1.0785 7.1820043945312495 1.07775 Q 7.12050439453125 1.077 7.05750439453125 1.077 Q 6.98400439453125 1.077 6.92175439453125 1.07775 Q 6.85950439453125 1.0785 6.82050439453125 1.0815 L 6.82050439453125 1.0514999999999999 Q 6.86850439453125 1.0485 6.89250439453125 1.0394999999999999 Q 6.91650439453125 1.0305 6.9247543945312495 1.0034999999999998 Q 6.93300439453125 0.9764999999999999 6.93300439453125 0.9224999999999999 L 6.93300439453125 0.17849999999999988 Q 6.93300439453125 0.12299999999999989 6.9247543945312495 0.09674999999999989 Q 6.91650439453125 0.07049999999999979 6.89175439453125 0.06074999999999986 Q 6.86700439453125 0.050999999999999934 6.82050439453125 0.04949999999999988 L 6.82050439453125 0.01949999999999985 Q 6.85950439453125 0.020999999999999908 6.92175439453125 0.022499999999999964 Q 6.98400439453125 0.0239999999999998 7.05750439453125 0.0239999999999998 Q 7.12050439453125 0.0239999999999998 7.1820043945312495 0.022499999999999964 Q 7.24350439453125 0.020999999999999908 7.28400439453125 0.01949999999999985 M 8.18396923828125 0.01949999999999985 L 8.18396923828125 0.04949999999999988 L 7.670969238281249 1.047 L 7.82696923828125 1.047 Q 7.877969238281249 1.047 7.929719238281249 1.0305 Q 7.9814692382812495 1.0139999999999998 8.02571923828125 0.9764999999999999 Q 8.06996923828125 0.9389999999999998 8.101469238281249 0.8767499999999999 Q 8.13296923828125 0.8144999999999999 8.14346923828125 0.7214999999999999 L 8.17796923828125 0.7214999999999999 Q 8.17346923828125 0.7725 8.17346923828125 0.8534999999999999 Q 8.17346923828125 0.8879999999999999 8.17496923828125 0.9509999999999998 Q 8.17646923828125 1.0139999999999998 8.18396923828125 1.0815 Q 8.101469238281249 1.0785 7.997219238281249 1.07775 Q 7.89296923828125 1.077 7.810469238281249 1.077 Q 7.712969238281249 1.077 7.6064692382812495 1.07775 Q 7.49996923828125 1.0785 7.40696923828125 1.0815 L 7.40696923828125 1.0514999999999999 L 7.92146923828125 0.053999999999999826 L 7.75946923828125 0.053999999999999826 Q 7.68446923828125 0.053999999999999826 7.621469238281249 0.08174999999999988 Q 7.5584692382812495 0.10949999999999993 7.51646923828125 0.1762499999999999 Q 7.47446923828125 0.24299999999999988 7.459469238281249 0.36149999999999993 L 7.42496923828125 0.36149999999999993 Q 7.42796923828125 0.3404999999999999 7.42871923828125 0.3104999999999999 Q 7.42946923828125 0.28049999999999986 7.42946923828125 0.24749999999999994 Q 7.42946923828125 0.21299999999999986 7.42721923828125 0.1499999999999999 Q 7.42496923828125 0.08699999999999986 7.4189692382812495 0.01949999999999985 Q 7.49396923828125 0.022499999999999964 7.58771923828125 0.023249999999999993 Q 7.68146923828125 0.0239999999999998 7.75646923828125 0.0239999999999998 Q 7.856969238281249 0.0239999999999998 7.970969238281249 0.023249999999999993 Q 8.08496923828125 0.022499999999999964 8.18396923828125 0.01949999999999985 M 9.119953857421875 0.01949999999999985 Q 9.113953857421874 0.08549999999999991 9.111703857421874 0.1469999999999999 Q 9.109453857421874 0.2084999999999999 9.109453857421874 0.24149999999999994 Q 9.109453857421874 0.27149999999999985 9.110953857421874 0.2984999999999999 Q 9.112453857421874 0.3254999999999999 9.113953857421874 0.3434999999999999 L 9.079453857421875 0.3434999999999999 Q 9.064453857421874 0.23399999999999987 9.032953857421875 0.1702499999999999 Q 9.001453857421874 0.10649999999999993 8.951203857421874 0.08024999999999993 Q 8.900953857421875 0.053999999999999826 8.833453857421874 0.053999999999999826 L 8.771953857421874 0.053999999999999826 Q 8.726953857421874 0.053999999999999826 8.705203857421875 0.06149999999999989 Q 8.683453857421874 0.06899999999999995 8.675953857421874 0.09074999999999989 Q 8.668453857421873 0.11249999999999993 8.668453857421873 0.16049999999999986 L 8.668453857421873 0.9404999999999999 Q 8.668453857421873 0.9869999999999999 8.675953857421874 1.0094999999999998 Q 8.683453857421874 1.0319999999999998 8.705203857421875 1.0394999999999999 Q 8.726953857421874 1.047 8.771953857421874 1.047 L 8.845453857421875 1.047 Q 8.912953857421874 1.047 8.964703857421874 1.01775 Q 9.016453857421874 0.9884999999999999 9.053203857421874 0.9179999999999999 Q 9.089953857421873 0.8474999999999999 9.109453857421874 0.7274999999999999 L 9.143953857421874 0.7274999999999999 Q 9.139453857421874 0.7754999999999999 9.139453857421874 0.8534999999999999 Q 9.139453857421874 0.8879999999999999 9.140953857421874 0.9509999999999998 Q 9.142453857421874 1.0139999999999998 9.149953857421874 1.0815 Q 9.073453857421875 1.0785 8.977453857421875 1.07775 Q 8.881453857421874 1.077 8.806453857421875 1.077 Q 8.755453857421875 1.077 8.671453857421874 1.077 Q 8.587453857421874 1.077 8.492953857421874 1.07775 Q 8.398453857421874 1.0785 8.317453857421874 1.0815 L 8.317453857421874 1.0514999999999999 Q 8.365453857421874 1.0485 8.389453857421874 1.0394999999999999 Q 8.413453857421874 1.0305 8.421703857421875 1.0034999999999998 Q 8.429953857421875 0.9764999999999999 8.429953857421875 0.9224999999999999 L 8.429953857421875 0.17849999999999988 Q 8.429953857421875 0.12299999999999989 8.421703857421875 0.09674999999999989 Q 8.413453857421874 0.07049999999999979 8.388703857421874 0.06074999999999986 Q 8.363953857421874 0.050999999999999934 8.317453857421874 0.04949999999999988 L 8.317453857421874 0.01949999999999985 Q 8.398453857421874 0.020999999999999908 8.492953857421874 0.022499999999999964 Q 8.587453857421874 0.0239999999999998 8.671453857421874 0.0239999999999998 Q 8.755453857421875 0.0239999999999998 8.806453857421875 0.0239999999999998 Q 8.875453857421874 0.0239999999999998 8.963203857421874 0.023249999999999993 Q 9.050953857421874 0.022499999999999964 9.119953857421875 0.01949999999999985 M 8.885953857421875 0.5324999999999999 Q 8.885953857421875 0.5324999999999999 8.885953857421875 0.5474999999999999 Q 8.885953857421875 0.5624999999999999 8.885953857421875 0.5624999999999999 L 8.623453857421874 0.5624999999999999 Q 8.623453857421874 0.5624999999999999 8.623453857421874 0.5474999999999999 Q 8.623453857421874 0.5324999999999999 8.623453857421874 0.5324999999999999 L 8.885953857421875 0.5324999999999999 M 8.929453857421874 0.3344999999999999 Q 8.923453857421874 0.41999999999999993 8.924203857421874 0.46499999999999986 Q 8.924953857421874 0.5099999999999999 8.924953857421874 0.5474999999999999 Q 8.924953857421874 0.585 8.926453857421874 0.6299999999999999 Q 8.927953857421874 0.6749999999999998 8.933953857421875 0.7605 L 8.899453857421875 0.7605 Q 8.891953857421875 0.708 8.871703857421874 0.6629999999999999 Q 8.851453857421873 0.6179999999999999 8.813953857421874 0.5902499999999999 Q 8.776453857421874 0.5624999999999999 8.716453857421874 0.5624999999999999 L 8.716453857421874 0.5324999999999999 Q 8.776453857421874 0.5324999999999999 8.812453857421874 0.49949999999999994 Q 8.848453857421875 0.4664999999999999 8.867953857421874 0.42074999999999985 Q 8.887453857421875 0.3749999999999999 8.894953857421875 0.3344999999999999 L 8.929453857421874 0.3344999999999999 M 10.573412109374999 0.01949999999999985 L 10.573412109374999 0.04949999999999988 Q 10.525412109374999 0.050999999999999934 10.501412109375 0.06074999999999986 Q 10.477412109374999 0.07049999999999979 10.469162109375 0.09674999999999989 Q 10.460912109375 0.12299999999999989 10.460912109375 0.17849999999999988 L 10.460912109375 0.9224999999999999 Q 10.460912109375 0.9764999999999999 10.469162109375 1.0034999999999998 Q 10.477412109374999 1.0305 10.501412109375 1.0394999999999999 Q 10.525412109374999 1.0485 10.573412109374999 1.0514999999999999 L 10.573412109374999 1.0815 Q 10.531412109375 1.0785 10.467662109375 1.07775 Q 10.403912109375 1.077 10.337912109374999 1.077 Q 10.265912109375 1.077 10.202912109375 1.07775 Q 10.139912109375 1.0785 10.100912109374999 1.0815 L 10.100912109374999 1.0514999999999999 Q 10.151912109374999 1.0485 10.178162109375 1.0394999999999999 Q 10.204412109375 1.0305 10.213412109375 1.0034999999999998 Q 10.222412109375 0.9764999999999999 10.222412109375 0.9224999999999999 L 10.222412109375 0.11099999999999988 L 10.232912109375 0.11099999999999988 L 9.860912109375 1.083 L 9.836912109375 1.083 L 9.431912109375 0.11699999999999988 L 9.431912109375 0.8354999999999999 Q 9.431912109375 0.9179999999999999 9.440912109375 0.9622499999999999 Q 9.449912109375 1.0065 9.480662109375 1.02525 Q 9.511412109375 1.0439999999999998 9.577412109375 1.0514999999999999 L 9.577412109375 1.0815 Q 9.548912109375 1.0785 9.502412109375 1.07775 Q 9.455912109375 1.077 9.415412109375 1.077 Q 9.380912109375 1.077 9.344912109375 1.07775 Q 9.308912109375 1.0785 9.284912109375 1.0815 L 9.284912109375 1.0514999999999999 Q 9.332912109375 1.0439999999999998 9.356912109375 1.0259999999999998 Q 9.380912109375 1.008 9.389162109375 0.9667499999999999 Q 9.397412109374999 0.9254999999999999 9.397412109374999 0.8534999999999999 L 9.397412109374999 0.17849999999999988 Q 9.397412109374999 0.12299999999999989 9.389162109375 0.09674999999999989 Q 9.380912109375 0.07049999999999979 9.356162109375 0.06074999999999986 Q 9.331412109375 0.050999999999999934 9.284912109375 0.04949999999999988 L 9.284912109375 0.01949999999999985 Q 9.308912109375 0.020999999999999908 9.344912109375 0.022499999999999964 Q 9.380912109375 0.0239999999999998 9.415412109375 0.0239999999999998 Q 9.479912109375 0.0239999999999998 9.542162109374999 0.022499999999999964 Q 9.604412109375 0.020999999999999908 9.652412109375 0.01949999999999985 L 9.967412109375 0.7799999999999999 L 9.929912109375 0.8144999999999999 L 10.231412109375 0.0239999999999998 Q 10.256912109375 0.0239999999999998 10.283912109375 0.0239999999999998 Q 10.310912109375 0.0239999999999998 10.337912109374999 0.0239999999999998 Q 10.403912109375 0.0239999999999998 10.467662109375 0.022499999999999964 Q 10.531412109375 0.020999999999999908 10.573412109374999 0.01949999999999985 M 11.4914150390625 0.01949999999999985 Q 11.4854150390625 0.08549999999999991 11.4831650390625 0.1469999999999999 Q 11.4809150390625 0.2084999999999999 11.4809150390625 0.24149999999999994 Q 11.4809150390625 0.27149999999999985 11.4824150390625 0.2984999999999999 Q 11.4839150390625 0.3254999999999999 11.4854150390625 0.3434999999999999 L 11.450915039062501 0.3434999999999999 Q 11.4359150390625 0.23399999999999987 11.404415039062501 0.1702499999999999 Q 11.3729150390625 0.10649999999999993 11.3226650390625 0.08024999999999993 Q 11.272415039062501 0.053999999999999826 11.2049150390625 0.053999999999999826 L 11.1434150390625 0.053999999999999826 Q 11.0984150390625 0.053999999999999826 11.076665039062501 0.06149999999999989 Q 11.0549150390625 0.06899999999999995 11.0474150390625 0.09074999999999989 Q 11.0399150390625 0.11249999999999993 11.0399150390625 0.16049999999999986 L 11.0399150390625 0.9404999999999999 Q 11.0399150390625 0.9869999999999999 11.0474150390625 1.0094999999999998 Q 11.0549150390625 1.0319999999999998 11.076665039062501 1.0394999999999999 Q 11.0984150390625 1.047 11.1434150390625 1.047 L 11.216915039062501 1.047 Q 11.2844150390625 1.047 11.3361650390625 1.01775 Q 11.3879150390625 0.9884999999999999 11.4246650390625 0.9179999999999999 Q 11.4614150390625 0.8474999999999999 11.4809150390625 0.7274999999999999 L 11.5154150390625 0.7274999999999999 Q 11.5109150390625 0.7754999999999999 11.5109150390625 0.8534999999999999 Q 11.5109150390625 0.8879999999999999 11.5124150390625 0.9509999999999998 Q 11.5139150390625 1.0139999999999998 11.5214150390625 1.0815 Q 11.4449150390625 1.0785 11.3489150390625 1.07775 Q 11.2529150390625 1.077 11.177915039062501 1.077 Q 11.126915039062501 1.077 11.0429150390625 1.077 Q 10.9589150390625 1.077 10.8644150390625 1.07775 Q 10.7699150390625 1.0785 10.6889150390625 1.0815 L 10.6889150390625 1.0514999999999999 Q 10.7369150390625 1.0485 10.7609150390625 1.0394999999999999 Q 10.7849150390625 1.0305 10.793165039062501 1.0034999999999998 Q 10.801415039062501 0.9764999999999999 10.801415039062501 0.9224999999999999 L 10.801415039062501 0.17849999999999988 Q 10.801415039062501 0.12299999999999989 10.793165039062501 0.09674999999999989 Q 10.7849150390625 0.07049999999999979 10.7601650390625 0.06074999999999986 Q 10.7354150390625 0.050999999999999934 10.6889150390625 0.04949999999999988 L 10.6889150390625 0.01949999999999985 Q 10.7699150390625 0.020999999999999908 10.8644150390625 0.022499999999999964 Q 10.9589150390625 0.0239999999999998 11.0429150390625 0.0239999999999998 Q 11.126915039062501 0.0239999999999998 11.177915039062501 0.0239999999999998 Q 11.2469150390625 0.0239999999999998 11.3346650390625 0.023249999999999993 Q 11.4224150390625 0.022499999999999964 11.4914150390625 0.01949999999999985 M 11.2574150390625 0.5324999999999999 Q 11.2574150390625 0.5324999999999999 11.2574150390625 0.5474999999999999 Q 11.2574150390625 0.5624999999999999 11.2574150390625 0.5624999999999999 L 10.9949150390625 0.5624999999999999 Q 10.9949150390625 0.5624999999999999 10.9949150390625 0.5474999999999999 Q 10.9949150390625 0.5324999999999999 10.9949150390625 0.5324999999999999 L 11.2574150390625 0.5324999999999999 M 11.3009150390625 0.3344999999999999 Q 11.2949150390625 0.41999999999999993 11.2956650390625 0.46499999999999986 Q 11.2964150390625 0.5099999999999999 11.2964150390625 0.5474999999999999 Q 11.2964150390625 0.585 11.2979150390625 0.6299999999999999 Q 11.2994150390625 0.6749999999999998 11.3054150390625 0.7605 L 11.270915039062501 0.7605 Q 11.263415039062501 0.708 11.2431650390625 0.6629999999999999 Q 11.2229150390625 0.6179999999999999 11.1854150390625 0.5902499999999999 Q 11.1479150390625 0.5624999999999999 11.0879150390625 0.5624999999999999 L 11.0879150390625 0.5324999999999999 Q 11.1479150390625 0.5324999999999999 11.1839150390625 0.49949999999999994 Q 11.219915039062501 0.4664999999999999 11.2394150390625 0.42074999999999985 Q 11.2589150390625 0.3749999999999999 11.266415039062501 0.3344999999999999 L 11.3009150390625 0.3344999999999999" fill="#231f20" fill-rule="nonzero"></path></g><g></g><g clip-path="url(&quot;#SvgjsClipPath1002&quot;)"><g clip-path="url(&quot;#a&quot;)"><path d=" M 9.074824968507825 -2.1181989543089683 L 2.514053690926454 -2.1181989543089683 L 2.514053690926454 -6.095370439501361 C 2.514053690926454 -6.254796368231162 2.643293001572016 -6.384035678876724 2.8027242987204692 -6.384035678876724 L 8.78615972913246 -6.384035678876724 C 8.94558028944361 -6.384035678876724 9.074824968507825 -6.254796368231162 9.074824968507825 -6.095370439501361 Z" fill="#5a5758" transform="matrix(1,0,0,1,0,0)" fill-rule="nonzero"></path></g><g clip-path="url(&quot;#a&quot;)"><path d=" M 9.074824968507825 -2.1181989543089683 L 2.514053690926454 -2.1181989543089683 L 2.514053690926454 -6.095370439501361 C 2.514053690926454 -6.254796368231162 2.643293001572016 -6.384035678876724 2.8027242987204692 -6.384035678876724 L 8.78615972913246 -6.384035678876724 C 8.94558028944361 -6.384035678876724 9.074824968507825 -6.254796368231162 9.074824968507825 -6.095370439501361 Z" fill="none" transform="matrix(1,0,0,1,0,0)" fill-rule="nonzero" stroke-dasharray="none" stroke-miterlimit="10" stroke-linejoin="miter" stroke-linecap="butt" stroke-width="0.09622353593133853" stroke="#231f20"></path></g><g clip-path="url(&quot;#a&quot;)"><path d=" M 2.5140536909264535 -2.1181989543089683 L 9.074824968507825 -2.1181989543089683 L 9.074824968507825 -1.7440040689584837 C 9.074824968507825 -1.5845781402286825 8.945591026280916 -1.4553388295831216 8.78615972913246 -1.4553388295831216 L 2.8027296671391215 -1.4553388295831216 C 2.643293001572015 -1.4553388295831216 2.5140536909264535 -1.5845781402286825 2.5140536909264535 -1.7440040689584837 Z" fill="#ffffff" transform="matrix(1,0,0,1,0,0)" fill-rule="nonzero"></path></g><g clip-path="url(&quot;#a&quot;)"><path d=" M 2.5140536909264535 -2.1181989543089683 L 9.074824968507825 -2.1181989543089683 L 9.074824968507825 -1.7440040689584837 C 9.074824968507825 -1.5845781402286825 8.945591026280916 -1.4553388295831216 8.78615972913246 -1.4553388295831216 L 2.8027296671391215 -1.4553388295831216 C 2.643293001572015 -1.4553388295831216 2.5140536909264535 -1.5845781402286825 2.5140536909264535 -1.7440040689584837 Z" fill="none" transform="matrix(1,0,0,1,0,0)" fill-rule="nonzero" stroke-dasharray="none" stroke-miterlimit="10" stroke-linejoin="miter" stroke-linecap="butt" stroke-width="0.09622353593133853" stroke="#231f20"></path></g><g clip-path="url(&quot;#SvgjsClipPath1000&quot;)"><path d=" M 5.445119947388317 -1.7867754180939164 L 6.1437766876904965 -1.7867754180939164" fill="none" transform="matrix(1,0,0,1,0,0)" fill-rule="nonzero" stroke-dasharray="none" stroke-miterlimit="10" stroke-linejoin="miter" stroke-linecap="butt" stroke-width="0.09622353593133853" stroke="#231f20"></path></g><g clip-path="url(&quot;#SvgjsClipPath1000&quot;)"><path d=" M 2.8515930137161716 -2.4598129068561008 L 3.057010185043818 -2.4598129068561008 L 3.057010185043818 -5.820260457224113 L 2.8515930137161716 -5.820260457224113 Z" fill="#d3d2d2" transform="matrix(1,0,0,1,0,0)" fill-rule="nonzero" stroke-dasharray="none" stroke-miterlimit="10" stroke-linejoin="miter" stroke-linecap="butt" stroke-width="0.09622353593133853" stroke="#231f20"></path></g><g clip-path="url(&quot;#SvgjsClipPath1000&quot;)"><path d=" M 2.8515930137161716 -5.830063189683978 L 8.7372749088808 -5.830063189683978 L 8.7372749088808 -6.035485729430278 L 2.8515930137161716 -6.035485729430278 Z" fill="#d3d2d2" transform="matrix(1,0,0,1,0,0)" fill-rule="nonzero" stroke-dasharray="none" stroke-miterlimit="10" stroke-linejoin="miter" stroke-linecap="butt" stroke-width="0.09612690439558959" stroke="#231f20"></path></g><g clip-path="url(&quot;#SvgjsClipPath1000&quot;)"><path d=" M 3.0570145447072425 -5.784669599288616 L 3.0570145447072425 -6.027230859274426" fill="none" transform="matrix(1,0,0,1,0,0)" fill-rule="nonzero" stroke-dasharray="none" stroke-miterlimit="10" stroke-linejoin="miter" stroke-linecap="butt" stroke-width="0.09622353593133853" stroke="#231f20"></path></g><g clip-path="url(&quot;#SvgjsClipPath1000&quot;)"><path d=" M 3.0131179941391864 -5.87395538058861 L 2.8954905730394565 -5.87395538058861 L 2.8954905730394565 -5.991588170106993 L 3.0131179941391864 -5.991588170106993 Z" fill="#f9b25f" transform="matrix(1,0,0,1,0,0)" fill-rule="nonzero"></path></g><g clip-path="url(&quot;#SvgjsClipPath1000&quot;)"><path d=" M 8.7372749088808 -2.4598129068561008 L 3.057010185043818 -2.4598129068561008 L 3.057010185043818 -5.820260457224113 L 8.7372749088808 -5.820260457224113 Z" fill="#ffffff" transform="matrix(1,0,0,1,0,0)" fill-rule="nonzero" stroke-dasharray="none" stroke-miterlimit="10" stroke-linejoin="miter" stroke-linecap="butt" stroke-width="0.09622353593133853" stroke="#231f20"></path></g><g clip-path="url(&quot;#SvgjsClipPath1000&quot;)"><path d=" M 3.0570145447072425 -5.32243954508638 L 8.737279268544224 -5.32243954508638" fill="none" transform="matrix(1,0,0,1,0,0)" fill-rule="nonzero" stroke-dasharray="none" stroke-miterlimit="10" stroke-linejoin="miter" stroke-linecap="butt" stroke-width="0.09622353593133853" stroke="#231f20"></path></g><g clip-path="url(&quot;#SvgjsClipPath1000&quot;)"><path d=" M 4.082136780819508 -5.810478336483406 L 4.082136780819508 -5.322440765183359" fill="none" transform="matrix(1,0,0,1,0,0)" fill-rule="nonzero" stroke-dasharray="none" stroke-miterlimit="10" stroke-linejoin="miter" stroke-linecap="butt" stroke-width="0.09622353593133853" stroke="#231f20"></path></g><g clip-path="url(&quot;#SvgjsClipPath1000&quot;)"><path d=" M 4.270794220756965 -5.566458940784893 L 8.550309676051848 -5.566458940784893" fill="none" transform="matrix(1,0,0,1,0,0)" fill-rule="nonzero" stroke-dasharray="none" stroke-miterlimit="10" stroke-linejoin="miter" stroke-linecap="butt" stroke-width="0.09622353593133853" stroke="#231f20"></path></g><g clip-path="url(&quot;#SvgjsClipPath1000&quot;)"><path d=" M 3.34962121212893 -5.508307017733254 L 3.2319937910292 -5.508307017733254 L 3.2319937910292 -5.625939807251638 L 3.34962121212893 -5.625939807251638 Z M 3.622621405875658 -5.508307017733254 L 3.5049939847759286 -5.508307017733254 L 3.5049939847759286 -5.625939807251638 L 3.622621405875658 -5.625939807251638 Z M 3.8956215996223866 -5.508307017733254 L 3.7779941785226563 -5.508307017733254 L 3.7779941785226563 -5.625939807251638 L 3.8956215996223866 -5.625939807251638 Z" fill="#231f20" transform="matrix(1,0,0,1,0,0)" fill-rule="nonzero"></path></g><g clip-path="url(&quot;#SvgjsClipPath1000&quot;)"><path d=" M 8.419893998132043 -3.9129418361927804 L 3.3743803589552703 -3.9129418361927804 L 3.3743803589552703 -4.7228053688860365 L 8.419893998132043 -4.7228053688860365 Z" fill="#75bebc" transform="matrix(1,0,0,1,0,0)" fill-rule="nonzero"></path></g><g clip-path="url(&quot;#SvgjsClipPath1000&quot;)"><path d=" M 4.5138996408949135 -3.6489945832576796 L 8.419907368426859 -3.6489945832576796" fill="none" transform="matrix(1,0,0,1,0,0)" fill-rule="nonzero" stroke-dasharray="none" stroke-miterlimit="10" stroke-linejoin="miter" stroke-linecap="butt" stroke-width="0.09539143104016706" stroke="#231f20"></path></g><g clip-path="url(&quot;#SvgjsClipPath1000&quot;)"><path d=" M 4.5138996408949135 -3.3892161552065283 L 8.419907368426859 -3.3892161552065283" fill="none" transform="matrix(1,0,0,1,0,0)" fill-rule="nonzero" stroke-dasharray="none" stroke-miterlimit="10" stroke-linejoin="miter" stroke-linecap="butt" stroke-width="0.09539143104016706" stroke="#231f20"></path></g><g clip-path="url(&quot;#SvgjsClipPath1000&quot;)"><path d=" M 4.5138996408949135 -3.129433700831322 L 8.419907368426859 -3.129433700831322" fill="none" transform="matrix(1,0,0,1,0,0)" fill-rule="nonzero" stroke-dasharray="none" stroke-miterlimit="10" stroke-linejoin="miter" stroke-linecap="butt" stroke-width="0.09539143104016706" stroke="#231f20"></path></g><g clip-path="url(&quot;#SvgjsClipPath1000&quot;)"><path d=" M 4.5138996408949135 -2.8696592991042262 L 8.419907368426859 -2.8696592991042262" fill="none" transform="matrix(1,0,0,1,0,0)" fill-rule="nonzero" stroke-dasharray="none" stroke-miterlimit="10" stroke-linejoin="miter" stroke-linecap="butt" stroke-width="0.09539143104016706" stroke="#231f20"></path></g><g clip-path="url(&quot;#SvgjsClipPath1000&quot;)"><path d=" M 4.320548041241068 -2.8114335917719013 L 3.3743857273739235 -2.8114335917719013 L 3.3743857273739235 -3.697845406034281 L 4.320548041241068 -3.697845406034281 Z" fill="#f9b25f" transform="matrix(1,0,0,1,0,0)" fill-rule="nonzero"></path></g><g clip-path="url(&quot;#SvgjsClipPath1000&quot;)"><path d=" M 5.1365476764543825 -4.924223068317408 L 5.018920255354653 -4.924223068317408 L 5.018920255354653 -5.041850489417138 L 5.1365476764543825 -5.041850489417138 Z M 5.409682080667428 -4.924223068317408 L 5.292054659567699 -4.924223068317408 L 5.292054659567699 -5.041850489417138 L 5.409682080667429 -5.041850489417138 Z M 5.682816484880475 -4.924223068317408 L 5.565189063780745 -4.924223068317408 L 5.565189063780745 -5.041850489417138 L 5.682816484880476 -5.041850489417138 Z M 5.955956257512175 -4.924223068317408 L 5.838328836412444 -4.924223068317408 L 5.838328836412444 -5.041850489417138 L 5.955956257512175 -5.041850489417138 Z M 6.229090661725221 -4.924223068317408 L 6.111463240625492 -4.924223068317408 L 6.111463240625492 -5.041850489417138 L 6.229090661725221 -5.041850489417138 Z M 6.502225065938267 -4.924223068317408 L 6.384597644838537 -4.924223068317408 L 6.384597644838537 -5.041850489417138 L 6.502225065938267 -5.041850489417138 Z M 6.775359470151313 -4.924223068317408 L 6.6577320490515834 -4.924223068317408 L 6.6577320490515834 -5.041850489417138 L 6.775359470151313 -5.041850489417138 Z" fill="#231f20" transform="matrix(1,0,0,1,0,0)" fill-rule="nonzero"></path></g><g clip-path="url(&quot;#SvgjsClipPath1000&quot;)"><path d=" M 6.92770982309683 -0.3006778720816694 L 4.661152731081488 -0.3006778720816694 L 4.661152731081488 -0.5786492215008154 L 6.92770982309683 -0.5786492215008154 Z" fill="#ffffff" transform="matrix(1,0,0,1,0,0)" fill-rule="nonzero"></path></g><g clip-path="url(&quot;#b&quot;)"><path d=" M 6.92770982309683 -0.3006778720816694 L 4.661152731081488 -0.3006778720816694 L 4.661152731081488 -0.5786492215008154 L 6.92770982309683 -0.5786492215008154 Z" fill="none" transform="matrix(1,0,0,1,0,0)" fill-rule="nonzero" stroke-dasharray="none" stroke-miterlimit="10" stroke-linejoin="miter" stroke-linecap="butt" stroke-width="0.09622353593133853" stroke="#231f20"></path></g><g clip-path="url(&quot;#SvgjsClipPath1000&quot;)"><path d=" M 6.344641004593954 -1.4553445271537644 L 6.518250295404239 -0.5786549190714592 L 5.0706454688612075 -0.5786549190714592 L 5.2442547596714935 -1.4553445271537644 Z" fill="#ffffff" transform="matrix(1,0,0,1,0,0)" fill-rule="nonzero"></path></g><g clip-path="url(&quot;#SvgjsClipPath1000&quot;)"><path d=" M 6.344641004593954 -1.4553445271537644 L 6.518250295404239 -0.5786549190714592 L 5.0706454688612075 -0.5786549190714592 L 5.2442547596714935 -1.4553445271537644 Z" fill="none" transform="matrix(1,0,0,1,0,0)" fill-rule="nonzero" stroke-dasharray="none" stroke-miterlimit="10" stroke-linejoin="miter" stroke-linecap="butt" stroke-width="0.09622353593133853" stroke="#231f20"></path></g><g clip-path="url(&quot;#c&quot;)"><path d=" M 0.7763073098785611 -0.2981117679656702 L 10.812565981137062 -0.2981117679656702" fill="none" transform="matrix(1,0,0,1,0,0)" fill-rule="nonzero" stroke-dasharray="none" stroke-miterlimit="10" stroke-linejoin="miter" stroke-linecap="butt" stroke-width="0.09622353593133853" stroke="#231f20"></path></g></g></g><defs><clipPath id="SvgjsClipPath1002"><path d=" M 0.7763073098785611 -6.432147446842393 h 10.036258671258501 v 6.182147446842393 h -10.036258671258501 Z"></path></clipPath><clipPath id="a"><path d=" M 0.7763073098785611 -0.25 L 10.812565981137062 -0.25 L 10.812565981137062 -6.432147446842393 L 0.7763073098785611 -6.432147446842393 Z"></path></clipPath><clipPath id="SvgjsClipPath1000"><path d=" M 0.7763073098785611 -6.432147446842393 L 10.812565981137062 -6.432147446842393 L 10.812565981137062 -0.25 L 0.7763073098785611 -0.25 Z"></path></clipPath><clipPath id="b"><path d=" M 0.7763073098785611 -0.25 L 10.812565981137062 -0.25 L 10.812565981137062 -6.432147446842393 L 0.7763073098785611 -6.432147446842393 Z"></path></clipPath><clipPath id="c"><path d=" M 0.7763073098785611 -0.25 L 10.812565981137062 -0.25 L 10.812565981137062 -6.432147446842393 L 0.7763073098785611 -6.432147446842393 Z"></path></clipPath></defs></svg>