<svg xmlns="http://www.w3.org/2000/svg" version="1.1" xmlns:xlink="http://www.w3.org/1999/xlink" xmlns:svgjs="http://svgjs.dev/svgjs" viewBox="0 0 6.941499324305419 6.307323945721622"><g transform="matrix(1,0,0,1,3.4729937307849448,4.972273570543621)"><rect width="6.941499324305419" height="6.307323945721622" x="-3.4729937307849448" y="-4.97227357054362" fill="#ffffff"></rect><g><path d=" M -2.434517865050906 -0.7842935147577573 C -2.400753178389259 -0.7945221185061091 -2.243516971165752 -0.801341967328949 -2.1855637956387444 -0.7925672396217289 C -2.105394055234124 -0.7799903750102393 -2.0449228330707228 -0.7324820463713094 -2.0376166875361856 -0.7083644130415616 C -2.031406463831829 -0.6878644247112758 -2.0453309211810313 -0.6599483310101464 -2.0730661995102415 -0.6515462636454288 C -2.179183786161132 -0.6193992232934659 -2.431496476599448 -0.6482879104179897 -2.4497618404357904 -0.7085819937423594 C -2.45560675686342 -0.7278761004061576 -2.453811971714704 -0.7784485983301277 -2.434517865050906 -0.7842935147577573 Z M -2.3634196430664356 -1.0928391276428653 C -2.2369902365229546 -1.0666285808903997 -2.1244107552601754 -1.029639631208048 -2.1134515369583697 -0.9934631812134262 C -2.110163771467828 -0.9826102462150398 -2.1216764654840556 -0.9554247670673639 -2.1373529271483918 -0.9506757724699149 C -2.233823460467383 -0.9214511903317668 -2.458840711921716 -0.9428101357162522 -2.501046570248775 -0.9300243810308123 C -2.5311936119109597 -0.920891699112641 -2.5177163469727604 -0.8459816481863095 -2.5082183577778623 -0.8146287248576373 C -2.5082183577778623 -0.8146287248576373 -2.5619405866540363 -0.7312103232631691 -2.5327160045158883 -0.6347397899441778 C -2.4994730423337446 -0.525004558293825 -2.189501628109536 -0.4622375481384594 -2.0303252481331997 -0.5104581086664037 C -1.9652076381428807 -0.5301847016096538 -1.9195575971225036 -0.6532872383618991 -1.9363617318519388 -0.7087577950203191 C -1.954992402965008 -0.7702577600111762 -2.0564990295567873 -0.8185003797364475 -2.0564990295567873 -0.8185003797364475 C -2.025656801108955 -0.8383760368166985 -2.0101538017507625 -0.9523458916507724 -2.026592629203471 -1.006610566642705 C -2.0528947531278043 -1.0934340466297976 -2.1841831141050414 -1.1313381027704101 -2.3248631809737574 -1.1611308667545317 C -2.3248631809737574 -1.1611308667545317 -2.3573474539004167 -1.1684052610541502 -2.3718180338982653 -1.1640215737334279 C -2.386288613896114 -1.1596378864127057 -2.3979112677486483 -1.1284694549888408 -2.3931622731511992 -1.1127929933245047 C -2.38841327855375 -1.0971165316601685 -2.3634196430664356 -1.0928391276428653 -2.3634196430664356 -1.0928391276428653 Z M -2.2425414597253415 -1.6296420378716068 C -2.2836523769458545 -1.6358701102289357 -2.3823343260479564 -1.6826792901129088 -2.4483237174783246 -1.7181638475802021 C -2.500307331791738 -1.7451547246114192 -2.547158017343548 -1.8312637024437302 -2.542439780709208 -1.8624083367016946 C -2.5394201092632303 -1.8823409026267919 -2.5103523536186394 -1.9059735914663285 -2.485436646212268 -1.9021990021588566 C -2.438096802140162 -1.8950272824746597 -2.353911497663839 -1.8618836539734105 -2.282070638312625 -1.8229638784386122 C -2.2828255561741195 -1.8179807369573378 -2.2848262594059325 -1.813186324941437 -2.285581177267427 -1.8082031834601628 C -2.289733225505646 -1.7807959053131541 -2.246582662868276 -1.7207350116794562 -2.2204211700915857 -1.7167716929066106 C -2.2067175310180813 -1.714695668787501 -2.193240709100731 -1.7279465280429616 -2.1798772957614574 -1.748860828985707 C -2.1678722218763156 -1.7355727365337303 -2.1591136365933052 -1.7176789615312265 -2.1610009312470413 -1.7052211078280406 C -2.16722900360437 -1.6641101906075275 -2.20890525472674 -1.6245463423065196 -2.2425414597253415 -1.6296420378716068 Z M -2.1358245914650555 -1.879819789138015 C -2.1358245914650555 -1.879819789138015 -2.129860569460397 -1.910775693930606 -2.127595815875914 -1.9257251183744288 C -2.1036271737734666 -2.083939860404888 -2.2391173500832693 -2.182202844908406 -2.2391173500832693 -2.182202844908406 C -2.2391173500832693 -2.182202844908406 -2.265128201085366 -2.203984617796459 -2.280077625529189 -2.2062493713809426 C -2.2950270499730117 -2.2085141249654257 -2.319111664136328 -2.1841265182643945 -2.3217538766515586 -2.1666855230799342 C -2.3240186302360417 -2.1517360986361114 -2.30329305875867 -2.1371268999265194 -2.30329305875867 -2.1371268999265194 C -2.30329305875867 -2.1371268999265194 -2.1900763773400085 -2.0600794999149334 -2.2034761693815343 -1.9716287386223144 C -2.20536346403527 -1.9591708849191287 -2.213366276962522 -1.9399932368555257 -2.213366276962522 -1.9399932368555257 C -2.3033658161631743 -2.0020539792267726 -2.4058604422635286 -2.040520120449263 -2.478115993742006 -2.051466429440932 C -2.5416510476282532 -2.0610916321749855 -2.6253810088037404 -1.9794723648323325 -2.6336851052801786 -1.924657808538315 C -2.6446314142718474 -1.8524022570598375 -2.582265115880094 -1.767765881753999 -2.582265115880094 -1.767765881753999 C -2.582265115880094 -1.767765881753999 -2.665769114393691 -1.712874295584157 -2.668977515305042 -1.6916959442887411 C -2.6716197278202722 -1.6742549491042809 -2.6657301722086464 -1.654247062291887 -2.648855365420307 -1.647867493665701 C -2.495132042868034 -1.5774273339307192 -1.9347520254037718 -1.3396076996976447 -1.8911495374426215 -1.3330021684095688 C -1.8587591178143383 -1.3280952023098551 -1.8174230924261996 -1.3906493756727183 -1.8127048557918597 -1.4217940099306827 C -1.809685184345882 -1.44172657585578 -1.8197648758865075 -1.450899853266054 -1.8353938973045283 -1.4570906924268665 C -1.8938704888222049 -1.4748702043570292 -2.1462376727857997 -1.5755468752310957 -2.1462376727857997 -1.5755468752310957 C -2.1462376727857997 -1.5755468752310957 -2.079117613551718 -1.631646159080476 -2.0645854447179506 -1.7275716325950066 C -2.056847536637633 -1.7786488327780683 -2.092900845983839 -1.8350857788788872 -2.1358245914650555 -1.879819789138015 Z M -1.9668039451414145 -2.5659697859355175 C -2.0016916300813334 -2.588591586030403 -2.0723017163734894 -2.6719189051629315 -2.11779487863827 -2.731451465893597 C -2.154029155484729 -2.7774719046291647 -2.1612161126451324 -2.8752373916211216 -2.1440783853005225 -2.901667455969545 C -2.133110239799972 -2.9185826971525364 -2.0968849882579765 -2.9281309719034607 -2.0757409367792374 -2.9144207900277728 C -1.9975079463079042 -2.863693117087727 -1.8229691668518326 -2.6604171075194927 -1.8613576761037591 -2.6012137633790244 C -1.8839794761986444 -2.566326078439105 -1.9382594756451172 -2.5474610404033387 -1.9668039451414145 -2.5659697859355175 Z M -1.901364115985902 -2.4769847604531514 C -1.901364115985902 -2.4769847604531514 -1.817086324708014 -2.50042587598379 -1.764302124486615 -2.5818304741769342 C -1.677242469575996 -2.7160952010669255 -1.8901878088929212 -2.971305293467676 -2.0075372945999215 -3.0473968028777443 C -2.0614546258707054 -3.082357766660749 -2.1713856429512197 -3.042513285441342 -2.201548043077733 -2.9959963721881167 C -2.2413075705172285 -2.9346786228997743 -2.2193776551882287 -2.831858634504215 -2.2193776551882287 -2.831858634504215 C -2.2193776551882287 -2.831858634504215 -2.3180845890210815 -2.816271934618837 -2.3297382436154166 -2.798299490861909 C -2.339335370928398 -2.7834986548267917 -2.3422175893176056 -2.762842052561247 -2.3294732805638416 -2.7500733175264545 C -2.2184579849959993 -2.6225261491926 -1.80594827164764 -2.1748435844290674 -1.7689461815598473 -2.1508507661466134 C -1.7414589146374868 -2.133027529708219 -1.6780113592247057 -2.1729787413562036 -1.6608736318800956 -2.199408805704627 C -1.649905486379545 -2.216324046887618 -1.6553072549822712 -2.2288368441752993 -1.666994361162098 -2.2409200701163074 C -1.7129415210545804 -2.2812249246355174 -1.901364115985902 -2.4769847604531514 -1.901364115985902 -2.4769847604531514 Z M -0.4852293262726123 -4.011412089694923 C -0.484394707977272 -4.019337202457596 -0.4849154041510946 -4.033414804366108 -0.4868128444079228 -4.042028289170284 C -0.49169197649690954 -4.064177250095308 -0.5823920345061369 -4.0893545231232356 -0.6070019910894964 -4.083933265246583 C -0.6168459737228401 -4.081764762095922 -0.6250635789931883 -4.072213271970254 -0.6259196269023712 -4.0526715529574036 C -0.6331815582804443 -3.968498434014001 -0.6389456899785771 -3.8072426905945296 -0.6551564578961864 -3.687552810472936 C -0.6608525397097312 -3.637270075344729 -0.7261975023386892 -3.5532041044705394 -0.7557294502387206 -3.546698595018557 C -0.7741869176762401 -3.542632651611068 -0.8034049434547539 -3.5581298568302717 -0.8074708868622429 -3.5765873242677912 C -0.8153317107833882 -3.6122717613136626 -0.797986309976643 -3.9025192417004066 -0.7953147792229418 -3.9431042404491072 C -0.7944801609276014 -3.95102935321178 -0.7950008571014241 -3.965106955120293 -0.7968982973582522 -3.973720439924469 C -0.8017774294472391 -3.9958694008494926 -0.8924774874564664 -4.02104667387742 -0.9158569462106578 -4.0158964788946 C -0.9269314266731696 -4.013456912850107 -0.9341895970081824 -4.005406983447439 -0.9377777034695339 -3.986553636476092 C -0.9457280068891097 -3.899648458980521 -0.9629700206697026 -3.591360820303928 -0.9488747501904075 -3.527374933187193 C -0.936947982861773 -3.473233028703802 -0.8266028188135432 -3.429159549476842 -0.7650779273551446 -3.4427126941684723 C -0.7072445293842498 -3.4554526501786045 -0.6239413658777524 -3.569278772618973 -0.6239413658777524 -3.569278772618973 C -0.6076133034062687 -3.5302987216194253 -0.5091343788882059 -3.499093776085653 -0.4193080373589438 -3.5188813673354327 C -0.3627051372172171 -3.5313502604517324 -0.31834292652564233 -3.5759583433802367 -0.2829686505582285 -3.6379396421709305 C -0.24073584483268973 -3.6395017306923982 -0.1983567928533133 -3.6462568734243708 -0.17251633844078584 -3.6519491941948554 C -0.0630020316448362 -3.6760737917459565 -0.009644364142979978 -3.8555550378937404 -0.009644364142979978 -3.8555550378937404 C -0.009644364142979978 -3.8555550378937404 0.0013481589072218414 -3.8876513684782603 -0.001904595818769339 -3.9024173424282758 C -0.0051573505447605195 -3.9171833163782916 -0.0353348112586096 -3.9311789608744947 -0.05256178086696117 -3.9273840803608384 C -0.06732775481697695 -3.924131325634847 -0.07475360101966988 -3.8992717357714977 -0.07475360101966988 -3.8992717357714977 C -0.07475360101966988 -3.8992717357714977 -0.11165462836698703 -3.750510076125228 -0.19409798292124147 -3.7323488622384438 C -0.2100944547004251 -3.72882504461862 -0.22471418239660312 -3.7307653441031334 -0.23960497298661387 -3.7339361414168146 C -0.1885015270907887 -3.8767949451972346 -0.17451979012230767 -4.047602178742375 -0.18671762034477468 -4.102974581054934 C -0.19403631847825487 -4.1361980224424695 -0.2846115598474872 -4.154951743430724 -0.3067605207725106 -4.150072611341738 C -0.32767898386836625 -4.145464542146583 -0.3331645305865458 -4.1352246799794115 -0.3303290850082248 -4.11649614964806 C -0.31884105644110317 -4.046775082533156 -0.3318419288604063 -3.889086015961192 -0.35939824013435984 -3.7681870676242735 L -0.3606287379635278 -3.7679160047304405 C -0.38769969020522327 -3.7619526210661234 -0.43114532518914767 -3.6956128863602657 -0.42545300441866307 -3.669772431947738 C -0.42328450126800227 -3.6599284493143944 -0.4137330111423337 -3.6517108440440462 -0.39980165548765834 -3.6470384860073644 C -0.4107727489240176 -3.6265587616730217 -0.4233702197233725 -3.6134620243136863 -0.4356751980150523 -3.6107513953753605 C -0.4541326654525719 -3.6066854519678717 -0.4899204895245956 -3.6168647863365755 -0.495070684507415 -3.6402442450907673 C -0.5075395776237146 -3.696847145232494 -0.4854398613679775 -3.971369216733887 -0.4852293262726123 -4.011412089694923 Z M 0.6622871256048768 -4.129385533306783 C 0.7016100066110995 -4.120474112018883 0.7492034918568145 -4.193665148096847 0.7597858046361963 -4.240361069291737 C 0.7667478525173685 -4.271082070077848 0.7174130836930094 -4.304225554883267 0.6866920829068979 -4.31118760276444 C 0.6461403618692306 -4.320377505967587 0.5997757166549602 -4.246907987974375 0.5891934038755784 -4.2002120667794856 C 0.5822313559944061 -4.169491065993374 0.6315661248187652 -4.136347581187955 0.6622871256048768 -4.129385533306783 Z M 0.2911846594330932 -3.6605307924741664 C 0.2786529732469831 -3.6052329910591654 0.3775523356366152 -3.528558337366278 0.43285013705161596 -3.516026651180168 C 0.5213266193156172 -3.4959759532823917 0.6203988754897518 -3.591091481229024 0.7146044287124418 -3.6989374609501384 C 0.7146044287124418 -3.6989374609501384 0.7382132732033427 -3.7233020348599046 0.7415550561863054 -3.738048115237238 C 0.7448968391692681 -3.752794195614572 0.7235469091528846 -3.7783037563378676 0.7075719887441068 -3.7819240212360774 C 0.6915970683353287 -3.7855442861342867 0.6767536736093289 -3.765653020890262 0.6767536736093289 -3.765653020890262 C 0.5890194596334413 -3.6692599957378516 0.5012189904614299 -3.5896773367399604 0.4655826295495405 -3.59775331228212 C 0.4532942292350959 -3.600538131434589 0.4378100174606878 -3.623426442550206 0.4414302823588974 -3.639401362958984 C 0.46092401642617975 -3.7254201651600964 0.6231184899037314 -3.979352137100102 0.6295235739544098 -4.0076154578233245 C 0.6348147303441007 -4.030963418420769 0.5612789571547655 -4.094138429789559 0.546532876777432 -4.097480212772521 C 0.5281002763057651 -4.101657441501224 0.5089471424588143 -4.09695430809457 0.5001330355195801 -4.080864475315335 C 0.461976876239717 -4.009410585924975 0.30427330944969705 -3.718286273952056 0.2911846594330932 -3.6605307924741664 Z M 1.090254153972856 -3.5442272243461748 C 1.1501235416794822 -3.5768728491010124 1.2019375166240658 -3.6043039628305364 1.2386866628628965 -3.620603565608427 C 1.3055345203805282 -3.650080253775561 1.3446418028415912 -3.64051155174704 1.3666077360265878 -3.6257592848259104 C 1.3896196660299178 -3.6103045290037743 1.4328335704325528 -3.5752110300861695 1.4655565605191514 -3.5380564836646027 C 1.3305332330136372 -3.4997259549787283 1.0025049336124918 -3.4316494950825756 0.9842402221863309 -3.404453577805913 C 0.9744053775722443 -3.3898096223492487 0.9717687261556722 -3.3339044985294457 0.9905966688856693 -3.3212596983113345 C 1.0083786147973333 -3.3093173869942296 1.0639092845671048 -3.299343284782973 1.0848292209337682 -3.2852935067628493 C 1.1047031604820985 -3.2719462176437317 1.2102560007356358 -3.1737370291000357 1.236405921193965 -3.156174806574881 C 1.3284536412072845 -3.094355783286337 1.456185937117171 -3.146689670793278 1.585010649044447 -3.211949974170249 C 1.585010649044447 -3.211949974170249 1.6147658524059207 -3.2268755452788316 1.6231957192179949 -3.2394275070988297 C 1.631625586030069 -3.251979468918828 1.6198534784428382 -3.284170173834295 1.606255519804507 -3.2933025295473755 C 1.5926575611661757 -3.3024348852604555 1.571644786401399 -3.289226853738508 1.571644786401399 -3.289226853738508 C 1.4571669412125168 -3.2295090962378254 1.3610002266488521 -3.210616160784841 1.3118383761871928 -3.2436331391321316 C 1.2856884557288635 -3.261195361657286 1.2167764502496918 -3.34390337517979 1.169706593424699 -3.375515375725068 C 1.3438990956566852 -3.4224490754104693 1.641813210712678 -3.472805481660367 1.6551604998317955 -3.492679421208697 C 1.67272272235695 -3.5188293416670264 1.6753593737735222 -3.5747344654868294 1.6607154183168578 -3.5845693101009157 C 1.6429334724051938 -3.596511621418021 1.590884301007749 -3.6026297712069195 1.5636883837310864 -3.6208944826330804 C 1.5385844600910903 -3.637754216257229 1.4295501214652264 -3.7398193572232827 1.390848239186899 -3.7658114465605115 C 1.3678363091835692 -3.781266202382648 1.3405784996414978 -3.781359040780761 1.2617883308067612 -3.7341004067019634 C 1.2617883308067612 -3.7341004067019634 1.1577549807348586 -3.662814791934207 1.076888291329808 -3.621504103914434 C 1.076888291329808 -3.621504103914434 1.045384602248995 -3.606235024888524 1.0369547354369208 -3.593683063068526 C 1.0292273575258528 -3.582177098066861 1.0399534682947504 -3.5506888820524005 1.0545974237514149 -3.5408540374383137 C 1.067149385571413 -3.5324241706262396 1.090254153972856 -3.5442272243461748 1.090254153972856 -3.5442272243461748 Z M 2.195684422277435 -2.7464741053528994 C 2.1653592680946794 -2.7284445900018954 2.01435003123773 -2.6841056050802505 1.9559840747128794 -2.678722156469999 C 1.8751381685547384 -2.6717004574256746 1.8050361626995006 -2.703315624277555 1.7921579374487835 -2.724976448693809 C 1.781211445985674 -2.7433881494476253 1.7880327440138446 -2.7738293828853635 1.8129426920925367 -2.7886393419236883 C 1.908250319524055 -2.8453035330268435 2.1601258463772743 -2.877783818930961 2.1923214095040673 -2.8236317578903254 C 2.202623989704641 -2.806303098357322 2.2130130818104385 -2.756776685553473 2.195684422277435 -2.7464741053528994 Z M 2.200676924908664 -2.4298822113987475 C 2.071651563171263 -2.4249992175903428 1.9534861809917483 -2.4339022762989675 1.9341688431156725 -2.466393512923349 C 1.9283736417528499 -2.4761408839106633 1.933028857339395 -2.50529429482333 1.9471083932099602 -2.513665141236296 C 2.033751690874977 -2.5651780422391646 2.257322499382324 -2.598420508804853 2.2952289421107688 -2.620957402993608 C 2.3223049726310867 -2.6370551845570045 2.2912515854246243 -2.7065450366435178 2.274509892598692 -2.734704108384648 C 2.274509892598692 -2.734704108384648 2.3066528914581257 -2.8285738863982477 2.255139990455257 -2.9152171840632644 C 2.1965440655644937 -3.0137739351572206 1.8805665155231186 -3.000351451413508 1.7376050743758413 -2.915355164758775 C 1.6791208484519553 -2.8805839565818387 1.664333886331231 -2.7501251257146246 1.6939538044078803 -2.7003052295572405 C 1.7267932787972091 -2.645070127295792 1.8369086751229993 -2.6225857973743967 1.8369086751229993 -2.6225857973743967 C 1.8117348110405302 -2.595891952256891 1.8240238794401238 -2.4815309029530734 1.8529998862542372 -2.432794048016502 C 1.8993614971568191 -2.354815080117987 2.035909012740391 -2.3495115729808003 2.1796282542611336 -2.3543354320896874 C 2.1796282542611336 -2.3543354320896874 2.2129090487527923 -2.355065855257447 2.2259055434025448 -2.362792790407877 C 2.2389020380522973 -2.3705197255583075 2.2427085610720474 -2.4035661713959477 2.2343377146590813 -2.417645707266513 C 2.225966868246115 -2.431725243137078 2.200676924908664 -2.4298822113987475 2.200676924908664 -2.4298822113987475 Z M 2.157807024115295 -1.6719503990057756 C 2.1564401632510055 -1.6832077206844733 2.163828997025703 -1.6955281563687292 2.177587945744111 -1.6971987640917499 C 2.2488843163758623 -1.7058555495655836 2.4865918494125783 -1.6611012029878647 2.5278686955678027 -1.6661130261569266 C 2.5804028634017246 -1.6724917101902776 2.5736230730708582 -1.8328637615055536 2.60489341106724 -1.8366605972396912 C 2.6374145625834773 -1.8406093064031945 2.670963002020342 -1.8256439393395028 2.697230085937303 -1.8288332813561785 C 2.7259987968939745 -1.832326370231585 2.758279284631703 -1.9009778094839007 2.753874955180103 -1.9372514015597038 C 2.7500781194459654 -1.968521739556086 2.6461359808639022 -2.0092097798994986 2.6036083211888226 -2.004046083301071 C 2.561080661513743 -1.998882386702644 2.5349381940308566 -1.942399509705219 2.5349381940308566 -1.942399509705219 C 2.5349381940308566 -1.942399509705219 2.4129932197977917 -1.9745553810088723 2.3288763980191165 -2.0087658281537806 C 2.3288763980191165 -2.0087658281537806 2.2967306455314724 -2.0226322551269824 2.281720883293209 -2.0208097739745963 C 2.267961934574801 -2.0191391662515756 2.251138260273792 -1.9904421074647667 2.253264488284909 -1.9729307181867926 C 2.2550869694372953 -1.9579209559485293 2.2791203470883454 -1.9481465424785556 2.2791203470883454 -1.9481465424785556 C 2.399135361914231 -1.9005252886485422 2.5070176405701563 -1.8692004366615789 2.5070176405701563 -1.8692004366615789 C 2.5070176405701563 -1.8692004366615789 2.5030860695859345 -1.8179529084324435 2.4893271208675265 -1.8162823007094229 C 2.431789698954183 -1.8092961229586095 2.2448740738585062 -1.8538713391116723 2.147310619309794 -1.8420252116211628 C 2.0985288920354384 -1.836102147875908 2.063147852630178 -1.7302658759715963 2.0699821569516255 -1.6739792675781087 C 2.080917043865942 -1.5839206941485282 2.2037016065053376 -1.5239431785493276 2.3371359971059684 -1.4703357778938377 C 2.3371359971059684 -1.4703357778938377 2.3678790626443917 -1.4575682910111256 2.382888824882655 -1.4593907721635118 C 2.3978985871209186 -1.4612132533158977 2.4147222614219275 -1.4899103121027066 2.412747906840176 -1.5061708878608253 C 2.410773552258424 -1.5224314636189442 2.3868920480367395 -1.5309550635690625 2.3868920480367395 -1.5309550635690625 C 2.2668770332108545 -1.578576317399076 2.1623632269962605 -1.634425993410117 2.157807024115295 -1.6719503990057756 Z M 2.4144809008556076 -0.7138422803648797 C 2.339178968517997 -0.7564282567681734 2.2803922114335498 -0.7926891887955525 2.2104271245980582 -0.8441900336828176 C 2.1738187511098785 -0.8710918364207373 2.1136177550478337 -0.959131566504022 2.124953282084883 -0.996510563638674 C 2.132632187497078 -1.0218318197621479 2.161392490018084 -1.0341766242928088 2.1987714871527357 -1.0228410972557591 C 2.27352948142204 -1.00017004318166 2.488465413560308 -0.8362388909382451 2.468353994623607 -0.7699213153767659 C 2.459578102723956 -0.7409827369499385 2.4144809008556076 -0.7138422803648797 2.4144809008556076 -0.7138422803648797 Z M 1.9509316762270377 -0.7569846997019025 C 1.924604000528084 -0.6701689644214206 2.0127553761431614 -0.5657530356692924 2.113221367318241 -0.4628692438592661 C 2.113221367318241 -0.4628692438592661 2.1362005635316392 -0.4387839508075688 2.150669852745053 -0.4343960048577431 C 2.1651391419584667 -0.4300080589079175 2.1921104329885464 -0.44947872043162385 2.1968640411008575 -0.46515378374615524 C 2.2016176492131687 -0.48082884706068674 2.182839012692932 -0.4970569587943676 2.182839012692932 -0.4970569587943676 C 2.092602451716603 -0.5902552584739502 2.0195036027047473 -0.683523046445693 2.0304734675793115 -0.719696269479227 C 2.033764427041681 -0.7305482363892872 2.0584329574831863 -0.7467672377721257 2.0741080207977176 -0.7420136296598145 C 2.1319851776513725 -0.724461845860512 2.2907332871640933 -0.6183867718509354 2.403483704928516 -0.5473275564461189 C 2.5604428029503112 -0.4483783394295877 2.609326492676992 -0.4098539461351356 2.6394708452049365 -0.4007123920729988 C 2.6599690049239397 -0.3944961353107458 2.7284594748405153 -0.4553589674056018 2.732847420790341 -0.4698282566190155 C 2.738332353227623 -0.48791486813578255 2.7346455426321095 -0.5061495665877123 2.7183872419277697 -0.5176633695305833 C 2.667200791612515 -0.5529361026841675 2.4883201845432765 -0.666433207557115 2.4883201845432765 -0.666433207557115 C 2.4883201845432765 -0.666433207557115 2.555674368650895 -0.7105239898499831 2.575785787587596 -0.7768415654114623 C 2.61418031464857 -0.9034478460288318 2.3810580937307155 -1.12029408213711 2.2218959123831654 -1.168561487585192 C 2.1712534001362176 -1.1839192984095817 2.062824297947592 -1.1259515746439508 2.040518906035978 -1.0523993544757646 C 2.0244297708866172 -0.9993452940265812 2.078523297800071 -0.8868244197584549 2.078523297800071 -0.8868244197584549 C 2.0480827714018006 -0.8776224877550006 1.967386473538884 -0.8112445342522037 1.9509316762270377 -0.7569846997019025 Z" fill="#525252" fill-rule="nonzero"></path></g><g><path d=" M -0.5699948605957031 0.5699226923076922 Q -0.6374163990572417 0.5699226923076922 -0.6900894759803184 0.5362119230769229 Q -0.7427625529033954 0.5025011538461537 -0.77331293751878 0.45088153846153833 L -0.77331293751878 0.7837753846153845 L -0.8660175529033954 0.7837753846153845 L -0.8660175529033954 0.009481153846153667 L -0.7838475529033955 0.009481153846153667 L -0.7838475529033955 0.11272038461538447 Q -0.7511902452110878 0.0621542307692306 -0.6985171682880108 0.031077115384615217 Q -0.6458440913649339 -1.1102230246251565e-16 -0.5836898605957032 -1.1102230246251565e-16 Q -0.52680293751878 -1.1102230246251565e-16 -0.4793971682880108 0.02317615384615368 Q -0.4319913990572416 0.04635230769230758 -0.39722716828801086 0.08638384615384603 Q -0.36246293751878 0.12641538461538449 -0.3429738990572416 0.17750826923076907 Q -0.32348486059570314 0.2286011538461537 -0.32348486059570314 0.28443461538461523 Q -0.32348486059570314 0.36239076923076907 -0.35456197598031847 0.4277053846153845 Q -0.3856390913649339 0.4930199999999999 -0.44147255290339543 0.5314713461538461 Q -0.49730601444185696 0.5699226923076922 -0.5699948605957031 0.5699226923076922 Z M -0.5984383221341647 0.48985961538461525 Q -0.5573533221341647 0.48985961538461525 -0.5241692836726262 0.4724774999999999 Q -0.4909852452110878 0.45509538461538446 -0.46728236059570316 0.4261251923076922 Q -0.4435794759803185 0.39715499999999987 -0.43093793751878007 0.360283846153846 Q -0.4182963990572416 0.3234126923076922 -0.4182963990572416 0.28443461538461523 Q -0.4182963990572416 0.24334961538461525 -0.4325181298264724 0.2064784615384614 Q -0.44673986059570314 0.16960730769230753 -0.4725496682880108 0.14116384615384603 Q -0.49835947598031854 0.11272038461538447 -0.5325969759803185 0.09639173076923063 Q -0.5668344759803186 0.08006307692307679 -0.606866014441857 0.08006307692307679 Q -0.6321490913649339 0.08006307692307679 -0.6590123605957031 0.08954423076923063 Q -0.6858756298264723 0.09902538461538446 -0.7101052452110878 0.11640749999999989 Q -0.7343348605957032 0.13378961538461526 -0.7511902452110878 0.15591230769230757 Q -0.7680456298264724 0.1780349999999999 -0.77331293751878 0.2033180769230768 L -0.77331293751878 0.360283846153846 Q -0.757511014441857 0.39610153846153834 -0.7311744759803185 0.42559846153846137 Q -0.7048379375187801 0.45509538461538446 -0.6700737067495492 0.4724774999999999 Q -0.6353094759803185 0.48985961538461525 -0.5984383221341647 0.48985961538461525 Z M 0.19332845299353968 0.09059769230769216 Q 0.12379999145507814 0.09165115384615369 0.07060018376277047 0.12588865384615372 Q 0.01740037607046277 0.1601261538461537 -0.004722316237229546 0.2201734615384614 L -0.004722316237229546 0.5593880769230768 L -0.09742693162184492 0.5593880769230768 L -0.09742693162184492 0.009481153846153667 L -0.011043085467998759 0.009481153846153667 L -0.011043085467998759 0.13694999999999985 Q 0.01740037607046277 0.08006307692307679 0.06427941453200123 0.04477211538461523 Q 0.11115845299353971 0.009481153846153667 0.16277806837815506 0.0052673076923075435 Q 0.17331268376277048 0.0052673076923075435 0.18068691453200125 0.0052673076923075435 Q 0.18806114530123202 0.0052673076923075435 0.19332845299353968 0.006320769230769074 L 0.19332845299353968 0.09059769230769216 Z M 0.6247758893667368 0.5699226923076922 Q 0.5626216585975061 0.5699226923076922 0.5120555047513522 0.5472732692307691 Q 0.4614893509051984 0.524623846153846 0.4246181970590445 0.4851190384615383 Q 0.38774704321289066 0.4456142307692306 0.36773127398212146 0.3939946153846152 Q 0.3477155047513522 0.3423749999999999 0.3477155047513522 0.28548807692307676 Q 0.3477155047513522 0.22754769230769217 0.36773127398212146 0.17592807692307677 Q 0.38774704321289066 0.12430846153846142 0.4246181970590445 0.08480365384615368 Q 0.4614893509051984 0.04529884615384605 0.512582235520583 0.02264942307692297 Q 0.5636751201359675 -1.1102230246251565e-16 0.6258293509051984 -1.1102230246251565e-16 Q 0.6869301201359677 -1.1102230246251565e-16 0.7374962739821215 0.02264942307692297 Q 0.7880624278282753 0.04529884615384605 0.8254603124436599 0.08480365384615368 Q 0.8628581970590445 0.12430846153846142 0.8828739662898137 0.17592807692307677 Q 0.9028897355205829 0.22754769230769217 0.9028897355205829 0.28548807692307676 Q 0.9028897355205829 0.3423749999999999 0.8828739662898137 0.3939946153846152 Q 0.8628581970590445 0.4456142307692306 0.8259870432128906 0.4851190384615383 Q 0.7891158893667368 0.524623846153846 0.7380230047513523 0.5472732692307691 Q 0.6869301201359677 0.5699226923076922 0.6247758893667368 0.5699226923076922 Z M 0.44252704321289066 0.28654153846153835 Q 0.44252704321289066 0.3434284615384614 0.46728338936673686 0.3897807692307691 Q 0.492039735520583 0.4361330769230768 0.533124735520583 0.462996346153846 Q 0.574209735520583 0.48985961538461525 0.6247758893667368 0.48985961538461525 Q 0.6753420432128907 0.48985961538461525 0.7169537739821215 0.4624696153846153 Q 0.7585655047513522 0.43507961538461526 0.7833218509051983 0.3882005769230768 Q 0.8080781970590445 0.34132153846153834 0.8080781970590445 0.28443461538461523 Q 0.8080781970590445 0.22754769230769217 0.7833218509051983 0.18119538461538448 Q 0.7585655047513522 0.1348430769230768 0.7169537739821215 0.10745307692307676 Q 0.6753420432128907 0.08006307692307679 0.6247758893667368 0.08006307692307679 Q 0.574209735520583 0.08006307692307679 0.533124735520583 0.10797980769230753 Q 0.492039735520583 0.13589653846153832 0.46728338936673686 0.182248846153846 Q 0.44252704321289066 0.2286011538461537 0.44252704321289066 0.28654153846153835 Z" fill="#006fbf" fill-rule="nonzero"></path></g><g clip-path="url(&quot;#SvgjsClipPath1023&quot;)"><path d=" M 0.12132631478881839 -1.909100719195043 C 0.40746675036624413 -1.9629481487885427 0.6904625525881443 -1.9800563675609657 0.9299140160757737 -1.8780077152302928 C 1.1108187664161395 -1.8009182651731421 1.262686891008515 -1.6468877634868546 1.3278408674982871 -1.4564784471618093 C 1.133869988900916 -1.549114399201335 1.0151371133064302 -1.6569364570409173 0.7773109659351403 -1.6387965158642095 C 0.8200062155898724 -1.5975049842662759 0.8593300144487928 -1.5528642845340563 0.8949061202481885 -1.505301529978277 C 1.0248466104536043 -1.3291808622933967 1.0756978051195918 -1.120695204117935 0.9591626395780697 -0.9217565114780137 L 0.8802712086093254 -0.7870814047597834 L 0.8256888534675682 -0.9333033224958325 C 0.8027550612209144 -0.9907948821252481 0.7726637439777244 -1.0451653385611848 0.7361268688654672 -1.0951282749487377 C 0.7064333159909757 -1.1372052987920886 0.6702637447742894 -1.1743145871904022 0.6289620040642308 -1.2050773769231817 C 0.6491939884749771 -1.1321651431652915 0.659122264145587 -1.0567801789035178 0.658457958279882 -0.9811158826834463 C 0.6512005684908369 -0.6579253062452963 0.42455376936323685 -0.449503247396126 0.14489339847573723 -0.32561175978021595 L -0.04832135479794597 -0.24002119977543002 L 0.04903508057077355 -0.4275897461927871 C 0.09024037741587798 -0.5069758385882432 0.10704473274046378 -0.5949054404821952 0.07271522972665512 -0.6799872058766485 C 0.017687679300856907 -0.8163724278129403 -0.14032131357455646 -0.8892925887020902 -0.27683373416343104 -0.9116936847403305 C -0.47726347767529853 -0.9445816030248644 -0.6837775567357226 -0.8888261936426187 -0.8492912701135373 -0.7735983475859778 L -0.882384119560566 -0.7505612582848218 L -1.22851285301453 -0.8919213608554739 L -1.2009531449548647 -0.9437901447421257 C -1.2222563320692696 -0.9736150184082957 -1.2452658498498292 -1.002183439377022 -1.2698665482876474 -1.0293524383796702 L -1.3278408674982871 -1.0907540546182428 L -0.9087919731551735 -1.3945539031292848 L -0.8692190590182185 -1.4923272674148045 L -0.6090978144858404 -1.7194192618264452 C -0.6056153172747213 -1.7229469757602542 -0.6025016847210535 -1.726820666146414 -0.5998052462554662 -1.7309802060278843 L -0.545519687969736 -2.1477960573589843 L -0.2922530374932235 -1.9842327233207766 L -0.17910276942877257 -2.257186898580424 L -0.10051520190786589 -2.166027864229224 C -0.029175602053590488 -2.0832874962545405 0.042218175004562264 -2.000608372075545 0.11366612926659347 -1.9179904916922377 L 0.12132631478881839 -1.9091219189704738 Z M -0.15668754020691145 -2.1176075771459355 L -0.23576270256272003 -1.9268590644140018 L -0.09528592396833968 -1.831975936178842 L 0.05752912392659848 -1.8694995386908475 C -0.013947096702673356 -1.9522870172775988 -0.0853526514138434 -2.0349896967626284 -0.15668754020691145 -2.1176075771459355 Z M -0.7379217831852495 -1.308461615105977 C -0.5137200248239685 -1.291014199926666 -0.5373789742044194 -1.5192580488033645 -0.5373789742044194 -1.5192580488033645 L -0.6623163174082348 -1.4208910908057906 L -0.7379288497770596 -1.308461615105977 Z M 0.11486038328251191 -0.39340157501518225 C 0.8516656449617548 -0.7197862509515296 0.49942430959199346 -1.3303539165338854 0.49942430959199346 -1.3303539165338854 C 0.7635664448643587 -1.3122351751326082 0.8951534509615442 -0.959244781030969 0.8951534509615442 -0.959244781030969 C 1.1149244562578482 -1.3343606740902523 0.6083275559785317 -1.6834856424717282 0.6083275559785317 -1.6834856424717282 C 0.9824965257352525 -1.7874917407338182 1.1807992251122585 -1.5988066728104542 1.1807992251122585 -1.5988066728104542 C 1.157447768942979 -1.6323858358358714 1.128720955237736 -1.6618862106814487 1.0957739924522865 -1.6861214812169218 L 1.0958305251867677 -1.6861638807677828 C 0.7854446131086465 -1.9657606523289908 0.30483863750713724 -1.882904863354741 -0.10573741325558195 -1.7834496502184005 C -0.1101681663205587 -1.7834496502184005 -0.11453532005924427 -1.783675781156326 -0.11889540720611946 -1.7840149775632144 L -0.487142573025917 -2.021826991750884 L -0.5281288055249062 -1.7073636561982943 C -0.535676573207382 -1.6918449401559907 -0.5458111523720248 -1.677724395877784 -0.5580982213918394 -1.6656071651919966 C -0.5584232846151074 -1.6652750353769186 -0.5587271480629447 -1.6649923717045119 -0.5590946108370736 -1.6646673084812438 L -0.8071107835986294 -1.448062136315896 L -0.8480192835877067 -1.3470098734304572 L -1.2159343195924264 -1.0802813655555699 C -1.1781280534080139 -1.040263256134574 -1.1472187808303278 -0.9940689454714893 -1.113171941488926 -0.950892069511347 L -1.1245138213442498 -0.9295580288364422 L -0.89166255460732 -0.8344417030715465 C -0.3516336084740864 -1.2104055871480504 0.3622617625565834 -0.8700149262439452 0.11486038328251191 -0.39340157501518225 Z" fill="#0e1b2e" transform="matrix(1,0,0,1,0,0)" fill-rule="evenodd"></path><path d=" M 0.314435069185349 -1.7221328330815509 C 0.314435069185349 -1.7221328330815509 0.9520536482170381 -1.9282582495924157 1.1807992251122585 -1.5988066728104542 C 1.1807992251122585 -1.5988066728104542 0.9824894591434421 -1.787484674142008 0.6083346225703421 -1.683485642471728 C 0.6083346225703421 -1.683485642471728 1.1148961898906076 -1.334360674090252 0.8951605175533546 -0.9592447810309688 C 0.8951605175533546 -0.9592447810309688 0.7635593782725487 -1.3122351751326078 0.49943137618380384 -1.3303539165338854 C 0.49943137618380384 -1.3303539165338854 0.8516727115535647 -0.7198003841351497 0.11486744987432229 -0.39340157501518225 C 0.11486744987432229 -0.39340157501518225 0.4584946098274858 -0.8320178620806584 0.07467974224988239 -1.0216215869393444 C 0.07467974224988239 -1.0216215869393444 0.33348660070556857 -1.1195786826119285 0.4254512265231283 -0.9191560056918713 C 0.4254512265231283 -0.9191560056918713 0.5047525198168621 -1.4544079357614295 0.054455156489174206 -1.4950479052617203 C 0.054455156489174206 -1.4950479052617203 0.4496048373302912 -1.6257798537498755 0.7002144492861793 -1.3891903599453654 C 0.700270982020661 -1.3891620935781246 0.5950564965590315 -1.6004390555186037 0.314435069185349 -1.7221328330815509 Z" fill="#1d3954" transform="matrix(1,0,0,1,0,0)" fill-rule="evenodd"></path></g></g><defs><clipPath id="SvgjsClipPath1023"><path d=" M -1.3278408674982871 -2.257186898580424 h 2.6556817349965742 v 2.0171868985804244 h -2.6556817349965742 Z"></path></clipPath></defs></svg>